<?xml version="1.0" encoding="UTF-8"?>
<svg width="16px" height="16px" viewBox="0 0 38 36" version="1.1" xmlns="http://www.w3.org/2000/svg" xmlns:xlink="http://www.w3.org/1999/xlink">
    <!-- Generator: sketchtool 57.1 (101010) - https://sketch.com -->
    <title>4154C7F0-1472-4FE6-B52E-C1B41936EEC8@1.00x</title>
    <desc>Created with sketchtool.</desc>
    <g id="Page-1" stroke="none" stroke-width="1" fill="none" fill-rule="evenodd">
        <g id="test" transform="translate(-1075.000000, -61.000000)" fill="#ffaa30">
            <g id="Dashboard" transform="translate(79.000000, 43.000000)">
                <g id="rating" transform="translate(795.000000, 0.000000)">
                    <path d="M237.123609,30.1416845 L227.329398,29.072107 C226.729752,28.9928791 226.250036,28.6363533 226.010178,28.1213716 L221.972564,19.2478403 C221.213013,17.5840532 218.854407,17.5840532 218.094856,19.2478403 L214.017266,28.1213716 C213.777408,28.6363533 213.257715,29.0324931 212.698046,29.072107 L202.903836,30.1416845 C201.064922,30.3397544 200.345348,32.5581372 201.704544,33.7861705 L208.980244,40.362091 C209.419984,40.7582308 209.619866,41.3524404 209.499937,41.9070361 L207.501118,51.454005 C207.141331,53.236634 209.060197,54.6231233 210.659251,53.7120018 L219.214195,48.8790964 C219.733887,48.6017985 220.333533,48.6017985 220.853226,48.8790964 L229.408169,53.7120018 C231.007224,54.6231233 232.92609,53.236634 232.566302,51.454005 L230.567484,41.9070361 C230.407578,41.3524404 230.60746,40.7582308 231.0472,40.362091 L238.3229,33.7861705 C239.64212,32.5977511 238.922545,30.3397544 237.123609,30.1416845 Z" id="star-copy-2"></path>
                </g>
            </g>
        </g>
    </g>
</svg>