<?xml version="1.0" encoding="UTF-8"?>
<svg width="16px" height="15px" viewBox="0 0 16 15" version="1.1" xmlns="http://www.w3.org/2000/svg" xmlns:xlink="http://www.w3.org/1999/xlink">
    <!-- Generator: sketchtool 57.1 (101010) - https://sketch.com -->
    <title>501C810C-EA24-44AD-BB8A-C337B6DF6ED7@1.00x</title>
    <desc>Created with sketchtool.</desc>
    <g id="Page-1" stroke="none" stroke-width="1" fill="none" fill-rule="evenodd">
        <g id="test" transform="translate(-109.000000, -401.000000)" fill="#CEDAE6">
            <g id="cards" transform="translate(80.000000, 163.000000)">
                <g id="card-green-copy-3" transform="translate(0.000000, 141.000000)">
                    <g id="card-copy-6">
                        <g id="card">
                            <path d="M44.2099404,102.059035 L40.0860622,101.613378 C39.8335799,101.580366 39.631594,101.431814 39.5306011,101.217238 L37.8305533,97.5199335 C37.5107424,96.8266888 36.5176452,96.8266888 36.1978342,97.5199335 L34.4809543,101.217238 C34.3799614,101.431814 34.1611433,101.596872 33.9254932,101.613378 L29.801615,102.059035 C29.0273358,102.141564 28.724357,103.06589 29.2966503,103.577571 L32.3601027,106.317538 C32.5452564,106.482596 32.6294172,106.730184 32.5789207,106.961265 L31.7373129,110.939169 C31.5858235,111.681931 32.393767,112.259635 33.0670532,111.880001 L36.6691346,109.86629 C36.8879526,109.750749 37.1404349,109.750749 37.359253,109.86629 L40.9613343,111.880001 C41.6346206,112.259635 42.4425641,111.681931 42.2910747,110.939169 L41.4494669,106.961265 C41.3821382,106.730184 41.466299,106.482596 41.6514527,106.317538 L44.7149051,103.577571 C45.2703663,103.082396 44.9673875,102.141564 44.2099404,102.059035 Z" id="star-copy-2"></path>
                        </g>
                    </g>
                </g>
            </g>
        </g>
    </g>
</svg>